<?xml version="1.0" encoding="UTF-8"?>
<!-- Generator: visioncortex VTracer 0.6.4 -->
<svg version="1.1" xmlns="http://www.w3.org/2000/svg" width="183" height="170">
<path d="M0 0 C13.69463925 11.53558411 23.31322796 27.6569173 25.7109375 45.4921875 C27.36835632 66.04330398 22.92032307 85.45562955 9.43359375 101.55078125 C8.58087891 102.51177734 8.58087891 102.51177734 7.7109375 103.4921875 C7.21464844 104.08128906 6.71835938 104.67039062 6.20703125 105.27734375 C-5.69435948 118.37185636 -23.04037637 124.84071755 -40.2890625 126.4921875 C-41.0315625 126.564375 -41.7740625 126.6365625 -42.5390625 126.7109375 C-59.67980878 127.49006233 -77.5763393 120.77174358 -90.2890625 109.4921875 C-91.16884766 108.84056641 -91.16884766 108.84056641 -92.06640625 108.17578125 C-105.37455461 98.06641685 -112.58548266 80.44664699 -114.9765625 64.4296875 C-116.59445858 44.04419695 -111.33270653 24.86942143 -98.4765625 8.7421875 C-97.7546875 7.9996875 -97.0328125 7.2571875 -96.2890625 6.4921875 C-95.6290625 6.4921875 -94.9690625 6.4921875 -94.2890625 6.4921875 C-93.9590625 5.5021875 -93.6290625 4.5121875 -93.2890625 3.4921875 C-67.41140841 -19.62183363 -27.3171789 -21.5731437 0 0 Z " fill="#EFAA01" transform="translate(133.2890625,27.5078125)"/>
<path d="M0 0 C11.21096696 11.21096696 17.08727694 26.29345708 17.38061523 42.14013672 C17.33728778 61.31347825 11.91243419 78.44789163 -1 93 C-1.49628906 93.58910156 -1.99257812 94.17820312 -2.50390625 94.78515625 C-14.40529698 107.87966886 -31.75131387 114.34853005 -49 116 C-49.7425 116.0721875 -50.485 116.144375 -51.25 116.21875 C-68.39074628 116.99787483 -86.2872768 110.27955608 -99 99 C-99.87978516 98.34837891 -99.87978516 98.34837891 -100.77734375 97.68359375 C-109.41127272 91.12494023 -115.99674462 79.91761258 -120 70 C-120 69.34 -120 68.68 -120 68 C-117.71125827 66.66141476 -115.41930344 65.32898986 -113.125 64 C-112.47402344 63.6184375 -111.82304688 63.236875 -111.15234375 62.84375 C-106.2265625 60 -106.2265625 60 -104 60 C-103.731875 60.75023437 -103.46375 61.50046875 -103.1875 62.2734375 C-96.97726069 78.493602 -86.22360639 87.20711176 -70.921875 94.7734375 C-64.33703814 97.53766046 -58.60801021 98.31715339 -51.5625 98.25 C-50.75490234 98.25773437 -49.94730469 98.26546875 -49.11523438 98.2734375 C-35.76911627 98.2304202 -22.6429092 92.65491207 -13.02734375 83.34375 C-2.95928068 71.70437073 1.91285251 58.17245733 1.44921875 42.80859375 C0.22624958 32.43994209 -3.63654691 23.27915232 -10 15 C-10.96163351 13.64817489 -11.92020886 12.29416651 -12.875 10.9375 C-13.57625 9.968125 -14.2775 8.99875 -15 8 C-10.05 5.36 -5.1 2.72 0 0 Z " fill="#FECB00" transform="translate(142,38)"/>
<path d="M0 0 C3.63195494 2.98016734 7.10161676 6.05651495 10.18212891 9.60742188 C10.18212891 10.59742187 10.18212891 11.58742188 10.18212891 12.60742188 C8.10639809 13.81026589 6.02329796 14.99447889 3.93212891 16.16992188 C3.34560547 16.51216797 2.75908203 16.85441406 2.15478516 17.20703125 C-2.21766766 19.63890108 -2.21766766 19.63890108 -5.05224609 19.49023438 C-7.00625796 18.51322844 -8.26804678 17.45763818 -9.81787109 15.91992188 C-20.59248059 6.34249122 -34.7059503 2.7506244 -48.81787109 3.25976562 C-62.09150564 4.14828387 -74.84266939 10.86718219 -83.81787109 20.60742188 C-91.76393904 31.16967988 -96.01254384 41.71693719 -95.94287109 54.91992188 C-95.94673828 55.64115234 -95.95060547 56.36238281 -95.95458984 57.10546875 C-95.94577417 62.02020605 -95.5106281 66.74162864 -94.81787109 71.60742188 C-96.93960739 72.9462076 -99.06492297 74.27857663 -101.19287109 75.60742188 C-101.79615234 75.98898438 -102.39943359 76.37054688 -103.02099609 76.76367188 C-107.59130859 79.60742188 -107.59130859 79.60742188 -109.81787109 79.60742188 C-111.75682356 73.6564231 -113.43270743 67.88675678 -113.81787109 61.60742188 C-113.87072266 60.81078125 -113.92357422 60.01414062 -113.97802734 59.19335938 C-114.58510683 41.29771181 -108.11856018 23.79822712 -97.00537109 9.85742188 C-96.28349609 9.11492188 -95.56162109 8.37242188 -94.81787109 7.60742188 C-94.15787109 7.60742188 -93.49787109 7.60742188 -92.81787109 7.60742188 C-92.48787109 6.61742188 -92.15787109 5.62742187 -91.81787109 4.60742188 C-66.68532276 -17.8410679 -27.05363903 -20.72441002 0 0 Z " fill="#FADA57" transform="translate(131.81787109375,26.392578125)"/>
<path d="M0 0 C2.3359375 1.19140625 2.3359375 1.19140625 4.375 2.5625 C5.06335938 3.01753906 5.75171875 3.47257812 6.4609375 3.94140625 C6.96882813 4.29074219 7.47671875 4.64007813 8 5 C6.70093299 8.89720103 5.34371167 9.20746992 1.78515625 11.14453125 C0.70556641 11.73943359 -0.37402344 12.33433594 -1.48632812 12.94726562 C-2.62521484 13.56279297 -3.76410156 14.17832031 -4.9375 14.8125 C-8.24642652 16.62246156 -11.55247576 18.43621026 -14.84716797 20.27197266 C-16.89117644 21.39226784 -18.95755644 22.4730246 -21.04736328 23.50537109 C-23.62916325 24.85158561 -25.84969991 26.03564933 -28 28 C-28.87023305 31.05430659 -28.55267587 32.79447995 -28 36 C-27.36908447 35.63648438 -26.73816895 35.27296875 -26.08813477 34.8984375 C-23.24752761 33.26340488 -20.40504493 31.63166122 -17.5625 30 C-16.56927734 29.42765625 -15.57605469 28.8553125 -14.55273438 28.265625 C-13.60849609 27.72421875 -12.66425781 27.1828125 -11.69140625 26.625 C-10.81685791 26.12226562 -9.94230957 25.61953125 -9.04125977 25.1015625 C-7 24 -7 24 -6 24 C-6 27.63 -6 31.26 -6 35 C-9.45540646 37.00520997 -12.91407801 39.00435148 -16.375 41 C-17.35984375 41.57234375 -18.3446875 42.1446875 -19.359375 42.734375 C-20.30039063 43.27578125 -21.24140625 43.8171875 -22.2109375 44.375 C-23.08024902 44.87773438 -23.94956055 45.38046875 -24.84521484 45.8984375 C-27 47 -27 47 -29 47 C-29 54.26 -29 61.52 -29 69 C-38.74909835 65.10036066 -38.74909835 65.10036066 -42 62 C-43.25264377 58.91448759 -43.33271154 55.98134055 -43.37890625 52.67578125 C-43.40790512 51.77433884 -43.43690399 50.87289642 -43.46678162 49.94413757 C-43.51157375 48.03906742 -43.53461814 46.1333779 -43.53735352 44.2277832 C-43.56235467 41.32934887 -43.71999947 38.45786539 -43.88476562 35.56445312 C-44.23898851 22.54279058 -44.23898851 22.54279058 -40.41482544 18.19973755 C-36.35821773 14.99209138 -31.83306226 12.90250911 -27.08706665 10.90994263 C-24.35145152 9.71723859 -21.89901037 8.19798833 -19.39453125 6.58203125 C-18.23147461 5.87916992 -18.23147461 5.87916992 -17.04492188 5.16210938 C-15.50609855 4.23181461 -13.97523986 3.28826019 -12.45117188 2.33398438 C-7.9602914 -0.34685452 -5.23151504 -1.84641707 0 0 Z " fill="#FAD955" transform="translate(115,56)"/>
<path d="M0 0 C3.03828028 1.30353624 5.85495184 2.78981299 8.70703125 4.46484375 C10.30998047 5.39103516 10.30998047 5.39103516 11.9453125 6.3359375 C12.75355469 6.89410156 13.56179687 7.45226563 14.39453125 8.02734375 C14.39453125 8.68734375 14.39453125 9.34734375 14.39453125 10.02734375 C13.07841205 10.90780313 11.74036772 11.75551607 10.39453125 12.58984375 C9.65203125 13.06550781 8.90953125 13.54117188 8.14453125 14.03125 C5.39453125 15.02734375 5.39453125 15.02734375 1.83203125 14.27734375 C-4.45794428 13.23763562 -9.44959254 17.32086409 -14.60546875 20.46484375 C-20.05046875 23.71328125 -20.05046875 23.71328125 -25.60546875 27.02734375 C-25.60546875 36.92734375 -25.60546875 46.82734375 -25.60546875 57.02734375 C-24.94546875 57.35734375 -24.28546875 57.68734375 -23.60546875 58.02734375 C-23.60546875 62.31734375 -23.60546875 66.60734375 -23.60546875 71.02734375 C-33.99348338 68.43034009 -33.99348338 68.43034009 -37.60546875 64.02734375 C-39.33244853 58.06351877 -38.99805688 51.68167765 -38.85424805 45.53271484 C-38.79308367 42.53297976 -38.83331857 39.54655833 -38.88476562 36.546875 C-38.90336727 22.86303265 -38.90336727 22.86303265 -35.83666992 18.52563477 C-33.47647512 16.91742876 -31.29199556 15.98016733 -28.60546875 15.02734375 C-27.08035965 14.18526693 -25.56816296 13.31934762 -24.0703125 12.4296875 C-22.56338735 11.60406414 -21.05426841 10.78243209 -19.54296875 9.96484375 C-18.03006126 9.14280904 -16.51833301 8.31860019 -15.0078125 7.4921875 C-14.27546387 7.09370605 -13.54311523 6.69522461 -12.78857422 6.28466797 C-10.56763758 5.0055555 -8.47879049 3.59586235 -6.359375 2.15625 C-3.89169855 0.60771303 -2.96158793 0.03108113 0 0 Z " fill="#FAD956" transform="translate(91.60546875,42.97265625)"/>
<path d="M0 0 C0 12.21 0 24.42 0 37 C-6.6825 40.83625 -6.6825 40.83625 -13.5 44.75 C-14.88896484 45.54889648 -16.27792969 46.34779297 -17.70898438 47.17089844 C-23.72881329 50.61849232 -29.74221933 53.99752948 -36 57 C-36 52.38 -36 47.76 -36 43 C-34.75863281 42.31292969 -33.51726562 41.62585938 -32.23828125 40.91796875 C-30.59632893 40.00785803 -28.95440324 39.09769925 -27.3125 38.1875 C-26.49587891 37.73568359 -25.67925781 37.28386719 -24.83789062 36.81835938 C-23.64389648 36.15610352 -23.64389648 36.15610352 -22.42578125 35.48046875 C-21.69786377 35.07723389 -20.96994629 34.67399902 -20.2199707 34.25854492 C-19.12108521 33.63556519 -19.12108521 33.63556519 -18 33 C-17.0917749 32.56381348 -16.1835498 32.12762695 -15.24780273 31.67822266 C-12.76232259 30.20794656 -12.76232259 30.20794656 -12.48339844 27.55151367 C-12.5249707 26.59994385 -12.56654297 25.64837402 -12.609375 24.66796875 C-12.62097656 23.62189453 -12.63257812 22.57582031 -12.64453125 21.49804688 C-12.71448848 19.30216705 -12.80026834 17.10673072 -12.90234375 14.91210938 C-12.95076121 7.02490533 -12.95076121 7.02490533 -10.05273438 3.90087891 C-6.62257556 1.53656904 -4.21949186 0 0 0 Z " fill="#FAD854" transform="translate(128,70)"/>
<path d="M0 0 C-0.66 0.33 -1.32 0.66 -2 1 C-3.94596771 0.28337117 -5.85909904 -0.52362419 -7.75 -1.375 C-19.76507576 -6.77876523 -33.69085157 -6.60309178 -46.03125 -2.265625 C-50.68558 -0.28141063 -54.86257918 2.0950024 -59 5 C-59.62390625 5.42796875 -60.2478125 5.8559375 -60.890625 6.296875 C-70.14479398 13.38340079 -76.83782816 25.41455414 -78.39575195 36.92358398 C-78.56944949 39.91968007 -78.60645691 42.87433693 -78.5625 45.875 C-78.54823975 47.44991211 -78.54823975 47.44991211 -78.53369141 49.05664062 C-78.23813193 60.09313915 -75.5652149 68.74727839 -68.33203125 77.31640625 C-66.90965385 79.11419117 -65.95867653 80.92362477 -65 83 C-72.45685042 79.91097065 -76.83272148 71.98869577 -79.875 64.875 C-85.56511981 50.51043181 -86.18468641 35.36072697 -80 21 C-72.37208596 5.56831224 -60.47804449 -3.62173878 -44.4375 -9.25 C-29.04649037 -12.5720199 -12.71313832 -9.26999669 0 0 Z " fill="#DC8402" transform="translate(119,39)"/>
<path d="M0 0 C-11.40516374 10.76800375 -25.0762116 18.17635577 -41 19 C-38.35652855 15.87883523 -35.23360806 14.48891458 -31.57421875 12.75 C-30.94900833 12.45061523 -30.32379791 12.15123047 -29.67964172 11.84277344 C-27.68504781 10.88920402 -25.68644024 9.94441916 -23.6875 9 C-22.3545346 8.36517745 -21.02184917 7.72976668 -19.68945312 7.09375 C-17.22658455 5.9181224 -14.76191041 4.74666592 -12.2956543 3.578125 C-10.08879676 2.52137064 -7.90935204 1.40547478 -5.76098633 0.234375 C-3 -1 -3 -1 0 0 Z " fill="#FBD94F" transform="translate(138,134)"/>
<path d="M0 0 C2.86697492 1.28519565 4.97607712 2.57129254 7 5 C7 5.66 7 6.32 7 7 C4.13302508 5.71480435 2.02392288 4.42870746 0 2 C0 1.34 0 0.68 0 0 Z " fill="#E29000" transform="translate(47,115)"/>
</svg>
