<svg width="584" height="90" viewBox="0 0 584 90" fill="none" xmlns="http://www.w3.org/2000/svg">
<path d="M19.1335 36.496H62.2695V52.624H19.1335V36.496ZM20.6695 73.36H69.4375V90H0.0615005V0.399994H67.7735V17.04H20.6695V73.36Z" fill="#FFCC00"/>
<path d="M85.9365 90V0.399994H124.721C132.742 0.399994 139.654 1.72266 145.457 4.368C151.259 6.92799 155.739 10.64 158.897 15.504C162.054 20.368 163.633 26.1707 163.633 32.912C163.633 39.568 162.054 45.328 158.897 50.192C155.739 55.056 151.259 58.8107 145.457 61.456C139.654 64.016 132.742 65.296 124.721 65.296H97.4565L106.673 55.952V90H85.9365ZM106.673 58.256L97.4565 48.4H123.569C129.969 48.4 134.747 47.0347 137.905 44.304C141.062 41.5733 142.641 37.776 142.641 32.912C142.641 27.9627 141.062 24.1227 137.905 21.392C134.747 18.6613 129.969 17.296 123.569 17.296H97.4565L106.673 7.43999V58.256Z" fill="#38B6FF"/>
<path d="M178.437 90V0.399994H199.173V90H178.437Z" fill="#8C52FF"/>
<path d="M220.437 90V0.399994H237.589L275.733 63.632H266.645L304.149 0.399994H321.173L321.429 90H301.973L301.845 30.224H305.429L275.477 80.528H266.133L235.541 30.224H239.893V90H220.437ZM330.91 90L370.847 0.399994H391.327L431.391 90H409.631L376.863 10.896H385.055L352.159 90H330.91ZM350.878 70.8L356.383 55.056H402.463L408.095 70.8H350.878ZM440.687 90V0.399994H461.423V73.104H506.351V90H440.687ZM517.937 90V0.399994H538.673V73.104H583.601V90H517.937Z" fill="white"/>
</svg>
